<?xml version="1.0" encoding="UTF-8" standalone="no"?>
<!DOCTYPE svg PUBLIC "-//W3C//DTD SVG 1.1//EN" "http://www.w3.org/Graphics/SVG/1.1/DTD/svg11.dtd">
<svg width="100%" height="100%" viewBox="0 0 471 180" version="1.1" xmlns="http://www.w3.org/2000/svg" xmlns:xlink="http://www.w3.org/1999/xlink" xml:space="preserve" xmlns:serif="http://www.serif.com/" style="fill-rule:evenodd;clip-rule:evenodd;stroke-linecap:round;">
    <g transform="matrix(1,0,0,1,-932,-33.449248)">
        <g transform="matrix(1,0,0,1,-0.479122,0)">
            <g transform="matrix(1,0,0,1,882.363465,-5.550752)">
                <g transform="matrix(1,0,0,1,50.115657,39)">
                    <path d="M180,40L180,140C180,162.077 162.077,180 140,180L40,180C17.923,180 0,162.077 0,140L0,40C0,17.923 17.923,0 40,0L140,0C162.077,0 180,17.923 180,40Z" style="fill:rgb(238,240,245);"/>
                </g>
                <g transform="matrix(0,1,-1,0,140.115657,129)">
                    <circle cx="0" cy="0" r="68" style="fill:none;stroke:rgb(74,158,255);stroke-opacity:0.2;stroke-width:10px;stroke-dasharray:320,107;stroke-dashoffset:160;"/>
                </g>
                <g transform="matrix(0,1,-1,0,135.115657,124)">
                    <circle cx="5" cy="-5" r="50" style="fill:none;stroke:rgb(74,158,255);stroke-opacity:0.45;stroke-width:10px;stroke-dasharray:236,79;stroke-dashoffset:118;"/>
                </g>
                <g transform="matrix(0,1,-1,0,130.115657,119)">
                    <circle cx="10" cy="-10" r="32" style="fill:none;stroke:rgb(74,158,255);stroke-opacity:0.75;stroke-width:10px;stroke-dasharray:151,50;stroke-dashoffset:75;"/>
                </g>
                <g transform="matrix(0,1,-1,0,125.115657,114)">
                    <circle cx="15" cy="-15" r="14" style="fill:none;stroke:rgb(74,158,255);stroke-width:10px;stroke-dasharray:66,22;stroke-dashoffset:33;"/>
                </g>
                <g transform="matrix(0,1,-1,0,120.115657,109)">
                    <circle cx="20" cy="-20" r="4" style="fill:rgb(74,158,255);"/>
                </g>
            </g>
            <g transform="matrix(1,0,0,1,591.16149,-14.458432)">
                <g transform="matrix(126.827891,0,0,126.827891,809.750819,186.297441)">
                </g>
                <text x="543.793px" y="186.297px" style="font-family:'NeueRegrade-ExtraBold-Italic', 'Neue Regrade';font-weight:800;font-style:italic;font-size:126.828px;fill:rgb(238,240,245);">AR<tspan x="715.898px " y="186.297px ">C</tspan></text>
            </g>
        </g>
    </g>
</svg>
