<svg width="144" height="56" viewBox="0 0 144 56" fill="none" xmlns="http://www.w3.org/2000/svg">
<rect width="144" height="56" rx="8" fill="url(#paint0_linear_1_50)"/>
<rect x="1.05" y="1.05" width="141.9" height="53.9" rx="6.95" stroke="white" stroke-opacity="0.15" stroke-width="2.1"/>
<g filter="url(#filter0_d_1_50)">
<path d="M30.1 39.4091C28.4466 39.4006 26.9721 38.9616 25.6767 38.0923C24.3812 37.223 23.3627 36.0213 22.6213 34.4872C21.8798 32.9531 21.5091 31.1847 21.5091 29.1818C21.5091 27.179 21.8968 25.4233 22.6724 23.9148C23.448 22.4062 24.4877 21.2301 25.7917 20.3864C27.0957 19.5341 28.5446 19.108 30.1383 19.108C31.1525 19.108 32.09 19.2827 32.9508 19.6321C33.8201 19.9815 34.5744 20.4844 35.2136 21.1406C35.8528 21.7884 36.3471 22.5597 36.6966 23.4545H38.4863L40.1355 29.1307L42.4877 39H37.8343L35.6355 29.1307C35.5076 28.4744 35.3329 27.8395 35.1113 27.2259C34.8897 26.6122 34.6042 26.0625 34.2548 25.5767C33.9139 25.0824 33.5005 24.6946 33.0147 24.4134C32.5289 24.1321 31.9664 23.9915 31.3272 23.9915C30.5176 23.9915 29.8315 24.2131 29.269 24.6562C28.715 25.0909 28.2889 25.6918 27.9906 26.4588C27.7008 27.2259 27.5559 28.108 27.5559 29.1051C27.5559 30.1364 27.7051 31.0526 28.0034 31.8537C28.3102 32.6463 28.7363 33.2727 29.2818 33.733C29.8272 34.1847 30.4537 34.4105 31.161 34.4105C31.7576 34.4105 32.3031 34.2571 32.7974 33.9503C33.2917 33.6435 33.7264 33.2386 34.1014 32.7358C34.4849 32.2244 34.8045 31.6662 35.0602 31.0611C35.3244 30.4474 35.5162 29.8381 35.6355 29.233L37.6681 19.3636H42.2321L40.1355 29.233L38.4863 34.6918H36.7349C36.411 35.5781 35.9551 36.3793 35.367 37.0952C34.7789 37.8026 34.046 38.3651 33.1681 38.7827C32.2988 39.2003 31.2761 39.4091 30.1 39.4091Z" fill="white"/>
</g>
<g filter="url(#filter1_d_1_50)">
<path d="M61.2784 24.5V12.8636H65.4261C66.3314 12.8636 67.0814 13.0284 67.6761 13.358C68.2708 13.6875 68.7159 14.1383 69.0113 14.7102C69.3068 15.2784 69.4545 15.9186 69.4545 16.6307C69.4545 17.3466 69.3049 17.9905 69.0057 18.5625C68.7102 19.1307 68.2632 19.5814 67.6648 19.9148C67.0701 20.2443 66.322 20.4091 65.4204 20.4091H62.5682V18.9204H65.2613C65.8333 18.9204 66.2973 18.822 66.6534 18.625C67.0095 18.4242 67.2708 18.1515 67.4375 17.8068C67.6041 17.4621 67.6875 17.0701 67.6875 16.6307C67.6875 16.1913 67.6041 15.8011 67.4375 15.4602C67.2708 15.1193 67.0076 14.8523 66.6477 14.6591C66.2916 14.4659 65.822 14.3693 65.2386 14.3693H63.0341V24.5H61.2784ZM71.3764 24.5V15.7727H73.0184V17.1591H73.1094C73.2684 16.6894 73.5487 16.3201 73.9503 16.0511C74.3556 15.7784 74.8139 15.642 75.3253 15.642C75.4313 15.642 75.5563 15.6458 75.7003 15.6534C75.848 15.661 75.9635 15.6704 76.0469 15.6818V17.3068C75.9787 17.2879 75.8575 17.267 75.6832 17.2443C75.509 17.2178 75.3347 17.2045 75.1605 17.2045C74.759 17.2045 74.401 17.2898 74.0866 17.4602C73.776 17.6269 73.5298 17.8598 73.348 18.1591C73.1662 18.4545 73.0753 18.7917 73.0753 19.1704V24.5H71.3764ZM80.8807 24.6761C80.0625 24.6761 79.3485 24.4886 78.7386 24.1136C78.1288 23.7386 77.6553 23.214 77.3182 22.5398C76.981 21.8655 76.8125 21.0776 76.8125 20.1761C76.8125 19.2708 76.981 18.4792 77.3182 17.8011C77.6553 17.1231 78.1288 16.5966 78.7386 16.2216C79.3485 15.8466 80.0625 15.6591 80.8807 15.6591C81.6988 15.6591 82.4129 15.8466 83.0227 16.2216C83.6326 16.5966 84.106 17.1231 84.4432 17.8011C84.7803 18.4792 84.9488 19.2708 84.9488 20.1761C84.9488 21.0776 84.7803 21.8655 84.4432 22.5398C84.106 23.214 83.6326 23.7386 83.0227 24.1136C82.4129 24.4886 81.6988 24.6761 80.8807 24.6761ZM80.8863 23.25C81.4166 23.25 81.856 23.1098 82.2045 22.8295C82.553 22.5492 82.8106 22.1761 82.9773 21.7102C83.1477 21.2443 83.2329 20.7311 83.2329 20.1704C83.2329 19.6136 83.1477 19.1023 82.9773 18.6364C82.8106 18.1667 82.553 17.7898 82.2045 17.5057C81.856 17.2216 81.4166 17.0795 80.8863 17.0795C80.3523 17.0795 79.9091 17.2216 79.5568 17.5057C79.2083 17.7898 78.9488 18.1667 78.7784 18.6364C78.6117 19.1023 78.5284 19.6136 78.5284 20.1704C78.5284 20.7311 78.6117 21.2443 78.7784 21.7102C78.9488 22.1761 79.2083 22.5492 79.5568 22.8295C79.9091 23.1098 80.3523 23.25 80.8863 23.25ZM86.8451 15.7727H88.544V25.0682C88.544 25.6515 88.4379 26.1439 88.2258 26.5454C88.0175 26.947 87.7069 27.2519 87.294 27.4602C86.8849 27.6686 86.3792 27.7727 85.777 27.7727C85.7164 27.7727 85.6595 27.7727 85.6065 27.7727C85.5497 27.7727 85.491 27.7708 85.4304 27.767V26.3068C85.4834 26.3068 85.5308 26.3068 85.5724 26.3068C85.6103 26.3068 85.6539 26.3068 85.7031 26.3068C86.1046 26.3068 86.3944 26.1989 86.5724 25.9829C86.7542 25.7708 86.8451 25.4621 86.8451 25.0568V15.7727ZM87.6861 14.4261C87.3906 14.4261 87.1368 14.3276 86.9247 14.1307C86.7164 13.9299 86.6122 13.6913 86.6122 13.4148C86.6122 13.1345 86.7164 12.8958 86.9247 12.6989C87.1368 12.4981 87.3906 12.3977 87.6861 12.3977C87.9815 12.3977 88.2334 12.4981 88.4417 12.6989C88.6539 12.8958 88.7599 13.1345 88.7599 13.4148C88.7599 13.6913 88.6539 13.9299 88.4417 14.1307C88.2334 14.3276 87.9815 14.4261 87.6861 14.4261ZM94.5909 24.6761C93.731 24.6761 92.9905 24.4924 92.3693 24.125C91.7519 23.7538 91.2746 23.2329 90.9375 22.5625C90.6041 21.8883 90.4375 21.0985 90.4375 20.1932C90.4375 19.2992 90.6041 18.5114 90.9375 17.8295C91.2746 17.1477 91.7443 16.6155 92.3466 16.2329C92.9526 15.8504 93.661 15.6591 94.4716 15.6591C94.964 15.6591 95.4413 15.7405 95.9034 15.9034C96.3655 16.0663 96.7803 16.322 97.1477 16.6704C97.5151 17.0189 97.8049 17.4716 98.017 18.0284C98.2291 18.5814 98.3352 19.2538 98.3352 20.0454V20.6477H91.3977V19.375H96.6704C96.6704 18.928 96.5795 18.5322 96.3977 18.1875C96.2159 17.839 95.9602 17.5644 95.6307 17.3636C95.3049 17.1629 94.9223 17.0625 94.4829 17.0625C94.0057 17.0625 93.589 17.1799 93.2329 17.4148C92.8807 17.6458 92.6079 17.9489 92.4147 18.3239C92.2254 18.6951 92.1307 19.0985 92.1307 19.5341V20.5284C92.1307 21.1117 92.2329 21.6079 92.4375 22.017C92.6458 22.4261 92.9356 22.7386 93.3068 22.9545C93.678 23.1667 94.1117 23.2727 94.6079 23.2727C94.9299 23.2727 95.2235 23.2273 95.4886 23.1364C95.7538 23.0417 95.9829 22.9015 96.1761 22.7159C96.3693 22.5303 96.517 22.3011 96.6193 22.0284L98.2272 22.3182C98.0985 22.7917 97.8674 23.2064 97.5341 23.5625C97.2045 23.9148 96.7897 24.1894 96.2897 24.3864C95.7935 24.5795 95.2272 24.6761 94.5909 24.6761ZM103.896 24.6761C103.052 24.6761 102.324 24.4848 101.714 24.1023C101.108 23.7159 100.642 23.1837 100.317 22.5057C99.991 21.8276 99.8281 21.0511 99.8281 20.1761C99.8281 19.2898 99.9948 18.5076 100.328 17.8295C100.661 17.1477 101.131 16.6155 101.737 16.2329C102.343 15.8504 103.057 15.6591 103.879 15.6591C104.542 15.6591 105.133 15.7822 105.652 16.0284C106.171 16.2708 106.589 16.6117 106.908 17.0511C107.23 17.4905 107.421 18.0038 107.482 18.5909H105.828C105.737 18.1818 105.529 17.8295 105.203 17.5341C104.881 17.2386 104.449 17.0909 103.908 17.0909C103.434 17.0909 103.019 17.2159 102.663 17.4659C102.311 17.7121 102.036 18.0644 101.839 18.5227C101.642 18.9773 101.544 19.5151 101.544 20.1364C101.544 20.7727 101.641 21.322 101.834 21.7841C102.027 22.2462 102.3 22.6042 102.652 22.8579C103.008 23.1117 103.427 23.2386 103.908 23.2386C104.23 23.2386 104.521 23.1799 104.783 23.0625C105.048 22.9413 105.269 22.7689 105.447 22.5454C105.629 22.322 105.756 22.053 105.828 21.7386H107.482C107.421 22.303 107.237 22.8068 106.93 23.25C106.624 23.6932 106.213 24.0417 105.697 24.2954C105.186 24.5492 104.586 24.6761 103.896 24.6761ZM113.372 15.7727V17.1364H108.605V15.7727H113.372ZM109.883 13.6818H111.582V21.9375C111.582 22.267 111.632 22.5151 111.73 22.6818C111.829 22.8447 111.955 22.9564 112.111 23.017C112.27 23.0739 112.442 23.1023 112.628 23.1023C112.764 23.1023 112.883 23.0928 112.986 23.0739C113.088 23.0549 113.168 23.0398 113.224 23.0284L113.531 24.4318C113.433 24.4697 113.293 24.5076 113.111 24.5454C112.929 24.5871 112.702 24.6098 112.429 24.6136C111.982 24.6212 111.565 24.5417 111.179 24.375C110.793 24.2083 110.48 23.9508 110.241 23.6023C110.003 23.2538 109.883 22.8163 109.883 22.2898V13.6818ZM119.486 24.5V15.7727H121.185V24.5H119.486ZM120.344 14.4261C120.048 14.4261 119.794 14.3276 119.582 14.1307C119.374 13.9299 119.27 13.6913 119.27 13.4148C119.27 13.1345 119.374 12.8958 119.582 12.6989C119.794 12.4981 120.048 12.3977 120.344 12.3977C120.639 12.3977 120.891 12.4981 121.099 12.6989C121.312 12.8958 121.418 13.1345 121.418 13.4148C121.418 13.6913 121.312 13.9299 121.099 14.1307C120.891 14.3276 120.639 14.4261 120.344 14.4261ZM125.169 19.3182V24.5H123.47V15.7727H125.101V17.1932H125.209C125.41 16.7311 125.724 16.3598 126.152 16.0795C126.584 15.7992 127.127 15.6591 127.783 15.6591C128.377 15.6591 128.898 15.7841 129.345 16.0341C129.792 16.2803 130.139 16.6477 130.385 17.1364C130.631 17.625 130.754 18.2292 130.754 18.9489V24.5H129.055V19.1534C129.055 18.5208 128.891 18.0265 128.561 17.6704C128.231 17.3106 127.779 17.1307 127.203 17.1307C126.809 17.1307 126.459 17.2159 126.152 17.3864C125.849 17.5568 125.608 17.8068 125.43 18.1364C125.256 18.4621 125.169 18.8561 125.169 19.3182Z" fill="#E8E8E8"/>
<path d="M63.6101 43.5H60.3984L64.5699 31.1364H68.5483L72.7198 43.5H69.5081L66.6044 34.2514H66.5078L63.6101 43.5ZM63.1814 38.6342H69.8945V40.9041H63.1814V38.6342ZM74.0509 43.5V31.1364H77.0392V41.0731H82.1827V43.5H74.0509ZM83.7296 43.5V31.1364H88.8369C89.7626 31.1364 90.5614 31.3175 91.2336 31.6797C91.9097 32.0379 92.4309 32.5389 92.7971 33.1829C93.1634 33.8228 93.3465 34.5673 93.3465 35.4165C93.3465 36.2698 93.1593 37.0163 92.785 37.6562C92.4148 38.2921 91.8855 38.7851 91.1973 39.1353C90.5091 39.4854 89.6921 39.6605 88.7463 39.6605H85.5951V37.3061H88.1909C88.6417 37.3061 89.018 37.2276 89.3198 37.0707C89.6257 36.9137 89.8571 36.6944 90.0141 36.4126C90.1711 36.1269 90.2495 35.7949 90.2495 35.4165C90.2495 35.0342 90.1711 34.7042 90.0141 34.4265C89.8571 34.1448 89.6257 33.9274 89.3198 33.7745C89.014 33.6216 88.6377 33.5451 88.1909 33.5451H86.7179V43.5H83.7296ZM94.8195 43.5V31.1364H97.8078V36.0987H102.68V31.1364H105.662V43.5H102.68V38.5316H97.8078V43.5H94.8195ZM110.211 43.5H106.999L111.171 31.1364H115.149L119.32 43.5H116.109L113.205 34.2514H113.108L110.211 43.5ZM109.782 38.6342H116.495V40.9041H109.782V38.6342Z" fill="#FF0000"/>
</g>
<defs>
<filter id="filter0_d_1_50" x="6.28571" y="2.28571" width="51.4286" height="51.4286" filterUnits="userSpaceOnUse" color-interpolation-filters="sRGB">
<feFlood flood-opacity="0" result="BackgroundImageFix"/>
<feColorMatrix in="SourceAlpha" type="matrix" values="0 0 0 0 0 0 0 0 0 0 0 0 0 0 0 0 0 0 127 0" result="hardAlpha"/>
<feOffset/>
<feGaussianBlur stdDeviation="2.85714"/>
<feComposite in2="hardAlpha" operator="out"/>
<feColorMatrix type="matrix" values="0 0 0 0 0 0 0 0 0 0 0 0 0 0 0 0 0 0 0.25 0"/>
<feBlend mode="normal" in2="BackgroundImageFix" result="effect1_dropShadow_1_50"/>
<feBlend mode="normal" in="SourceGraphic" in2="effect1_dropShadow_1_50" result="shape"/>
</filter>
<filter id="filter1_d_1_50" x="54.4" y="3.9" width="83.2" height="48.2" filterUnits="userSpaceOnUse" color-interpolation-filters="sRGB">
<feFlood flood-opacity="0" result="BackgroundImageFix"/>
<feColorMatrix in="SourceAlpha" type="matrix" values="0 0 0 0 0 0 0 0 0 0 0 0 0 0 0 0 0 0 127 0" result="hardAlpha"/>
<feOffset/>
<feGaussianBlur stdDeviation="2.8"/>
<feComposite in2="hardAlpha" operator="out"/>
<feColorMatrix type="matrix" values="0 0 0 0 0 0 0 0 0 0 0 0 0 0 0 0 0 0 0.25 0"/>
<feBlend mode="normal" in2="BackgroundImageFix" result="effect1_dropShadow_1_50"/>
<feBlend mode="normal" in="SourceGraphic" in2="effect1_dropShadow_1_50" result="shape"/>
</filter>
<linearGradient id="paint0_linear_1_50" x1="72" y1="0" x2="72" y2="56" gradientUnits="userSpaceOnUse">
<stop stop-color="#360A0A"/>
<stop offset="1" stop-color="#1E0505"/>
</linearGradient>
</defs>
</svg>
